<svg width="40" height="40" viewBox="0 0 40 40" fill="none" xmlns="http://www.w3.org/2000/svg">
<path d="M20 0C8.96638 0 0 8.96638 0 20C0 31.0336 8.96638 40 20 40C31.0336 40 40 31.0336 40 20C40 8.96638 31.0336 0 20 0ZM20 1.73913C30.0933 1.73913 38.2609 9.90666 38.2609 20C38.2609 20.0621 38.2564 20.1232 38.2558 20.1851C37.6996 20.1338 37.057 20.085 36.2398 20.056C35.0844 20.0151 33.628 20.0269 31.9769 20.1087C32.0381 19.6823 32.081 19.2499 32.0822 18.806C32.1664 17.1777 31.6196 15.6543 30.7303 14.3088C30.9451 13.5664 31.1972 12.6219 31.2602 11.5506C31.332 10.3295 31.2266 8.97545 30.2463 8.06046L29.9949 7.82609H29.6518C27.3187 7.82609 25.7218 8.80279 24.7452 9.57711C23.3352 9.03132 21.7498 8.69565 20 8.69565C18.2403 8.69565 16.6396 9.03601 15.1715 9.5805C14.1956 8.80582 12.5972 7.82609 10.2615 7.82609H9.92018L9.66882 8.05876C8.71387 8.9455 8.62589 10.2624 8.68546 11.4776C8.73799 12.5491 8.97542 13.5236 9.18648 14.302C8.28216 15.6738 7.73947 17.2365 7.73947 18.7823C7.73947 19.2272 7.78084 19.6609 7.84137 20.0883C6.27115 20.0155 4.87139 20.0014 3.76019 20.0408C2.94306 20.0697 2.30038 20.118 1.74423 20.1698C1.74371 20.113 1.73913 20.0569 1.73913 20C1.73913 9.90666 9.90666 1.73913 20 1.73913ZM10.7796 9.67901C12.534 9.84525 13.8539 10.6287 14.465 11.1719L14.8726 11.5319L15.3753 11.3264C16.7505 10.7602 18.2843 10.4348 20 10.4348C21.7157 10.4348 23.2499 10.7618 24.5211 11.3179L25.0306 11.5421L25.4467 11.1719C26.058 10.6285 27.3802 9.84483 29.1355 9.67901C29.3689 10.0659 29.5717 10.6162 29.5228 11.4487C29.4641 12.445 29.1977 13.5301 28.9963 14.1746L28.8655 14.5941L29.1253 14.949C29.9858 16.1223 30.4245 17.3921 30.3499 18.7347L30.3482 18.7585V18.7823C30.3482 20.9522 29.5668 22.689 27.9025 23.9759C26.2383 25.2628 23.611 26.087 19.9134 26.087C16.2158 26.087 13.5868 25.2628 11.9226 23.9759C10.2583 22.689 9.4786 20.9522 9.4786 18.7823C9.4786 17.5086 9.93853 16.1075 10.788 14.949L11.0428 14.6026L10.9205 14.1899C10.719 13.5048 10.472 12.3949 10.4229 11.3927C10.382 10.5591 10.5793 10.0322 10.7796 9.67901ZM5.98675 20.8882C6.60127 20.8961 7.30562 20.9293 8.01121 20.9647C8.07862 21.2358 8.1555 21.5025 8.24898 21.7629C5.37302 21.8236 3.2215 22.1128 1.89538 22.3607C1.83931 21.9256 1.79465 21.487 1.7697 21.0428C2.74974 20.9498 4.1313 20.8646 5.98675 20.8882ZM34.0132 20.9018C35.8674 20.8783 37.2485 20.9636 38.2286 21.0564C38.2037 21.4942 38.1598 21.9267 38.1046 22.3556C36.7311 22.1037 34.5215 21.8145 31.571 21.768C31.6626 21.5128 31.7388 21.2506 31.8054 20.9851C32.5837 20.9433 33.3431 20.9103 34.0132 20.9018ZM8.61923 22.6257C9.13813 23.6655 9.87958 24.5939 10.8594 25.3516C12.199 26.3874 13.9405 27.1112 16.0666 27.4983C15.7884 27.7841 15.5355 28.0979 15.3108 28.429L15.2582 28.3832C15.2629 28.3777 14.8259 28.5964 14.1729 28.6549C13.5199 28.7134 12.7144 28.6957 12.0007 28.6957C10.9355 28.6957 10.4663 28.1924 9.71637 27.2758C9.30112 26.7161 8.79487 26.2629 8.30333 25.9188C7.80002 25.5665 7.37066 25.3178 6.83933 25.2293L6.768 25.2174H6.69497C6.28918 25.2174 5.89651 25.2468 5.52989 25.6658C5.34658 25.8753 5.22024 26.2631 5.30231 26.5914C5.38438 26.9196 5.59205 27.1214 5.77785 27.2452C6.96631 28.0375 7.17634 29.6057 7.9212 31.0003C8.61678 32.3864 10.118 33.0435 11.6525 33.0435H13.913V37.2198C7.7981 35.0613 3.18668 29.7431 2.02785 23.2201C3.35907 22.9694 5.58829 22.6679 8.61923 22.6257ZM31.2024 22.6325C34.3005 22.659 36.5922 22.9601 37.9738 23.215C36.8166 29.7404 32.2035 35.0608 26.087 37.2198V32.6953C26.087 31.3174 25.6345 29.798 24.8471 28.5309C24.6081 28.1462 24.3269 27.7824 24.0132 27.4558C26.0265 27.0581 27.6803 26.3468 28.9674 25.3516C29.9451 24.5956 30.6849 23.6699 31.2024 22.6325ZM18.8689 27.9127H21.3043C22.0111 27.9127 22.7656 28.476 23.3696 29.448C23.9735 30.4201 24.3478 31.7254 24.3478 32.6953V37.7378C22.9543 38.0776 21.4989 38.2609 20 38.2609C18.5011 38.2609 17.0457 38.0776 15.6522 37.7378V32.6953C15.6522 31.7468 16.059 30.4446 16.7035 29.4684C17.3479 28.4922 18.1621 27.9127 18.8689 27.9127ZM8.96399 28.9402C9.71684 29.7211 10.6283 30.4348 12.0007 30.4348C12.6782 30.4348 13.5239 30.4592 14.3274 30.3872C14.3303 30.387 14.3331 30.3858 14.3359 30.3855C14.2301 30.6899 14.1511 30.9961 14.0846 31.3043H11.6525C10.58 31.3043 9.82241 30.9169 9.47351 30.2191L9.46671 30.2072L9.46162 30.197C9.31866 29.9315 9.131 29.4005 8.96399 28.9402Z" fill="black"/>
</svg>
