<svg width="69" height="62" viewBox="0 0 69 62" fill="none" xmlns="http://www.w3.org/2000/svg">
<g filter="url(#filter0_f_401_3)">
<path d="M49.8626 21.7731C57.3648 23.7335 62.2991 27.0582 62.2991 30.8296C62.2991 36.8571 49.6961 41.7433 34.1496 41.7433C32.0093 41.7433 29.9249 41.6507 27.9215 41.4753M18.4274 39.8838C10.9303 37.9231 6 34.5996 6 30.8296C6 24.8022 18.603 19.916 34.1496 19.916C36.2057 19.916 38.2103 20.0014 40.141 20.1637M18.404 21.7391C16.4029 14.341 16.8331 8.48023 20.0748 6.60866C25.2947 3.59493 35.8278 12.0663 43.6011 25.5301C44.6391 27.3279 45.5753 29.1238 46.4061 30.8934M49.8114 39.9294C51.9076 47.4712 51.5105 53.4679 48.2244 55.3651C43.0044 58.3789 32.4713 49.9075 24.6981 36.4437C23.6386 34.6088 22.6851 32.7757 21.8416 30.9706M34.1511 12.8226C39.5814 7.34291 44.9034 4.75534 48.1588 6.63487C53.3788 9.6486 51.3089 23.0062 43.5356 36.47C42.5289 38.2135 41.476 39.8734 40.3943 41.4354M34.107 49.1125C28.6456 54.6546 23.2827 57.2813 20.0093 55.3914C14.7893 52.3776 16.8592 39.02 24.6325 25.5563C25.7234 23.6668 26.8686 21.8757 28.0459 20.2008" stroke="#F0FF4C" stroke-opacity="0.8" stroke-width="6" stroke-linecap="round"/>
</g>
<g filter="url(#filter1_f_401_3)">
<path d="M38.2674 37.8409C36.9711 37.9521 35.6238 38.0108 34.2412 38.0108C32.8314 38.0108 31.4584 37.9498 30.1387 37.8343M30.2796 23.7975C31.556 23.6898 32.8815 23.633 34.2412 23.633C35.5956 23.633 36.916 23.6893 38.1878 23.7962M38.2537 23.8534C39.0168 24.9422 39.7593 26.1052 40.467 27.3311C41.1507 28.5153 41.7675 29.6982 42.3147 30.8639M30.0834 37.7889C29.3713 36.7605 28.6782 35.6678 28.0154 34.52C27.3176 33.3112 26.6895 32.1038 26.1339 30.9148M42.3191 30.9026C41.7601 32.1012 41.1275 33.3185 40.4239 34.5372C39.7608 35.6857 39.0672 36.7791 38.3547 37.808M26.1492 30.8287C26.6903 29.68 27.2988 28.5148 27.9723 27.3483C28.6908 26.1037 29.4452 24.9239 30.2207 23.8207" stroke="#F0FF4C" stroke-opacity="0.8" stroke-width="6" stroke-linecap="round"/>
</g>
<g filter="url(#filter2_f_401_3)">
<path d="M36.1922 34.2534C35.5947 34.3047 34.9735 34.3318 34.3362 34.3318C33.6862 34.3318 33.0532 34.3037 32.4449 34.2504M32.5098 27.7793C33.0983 27.7296 33.7093 27.7035 34.3362 27.7035C34.9605 27.7035 35.5693 27.7294 36.1556 27.7787M36.1859 27.8051C36.5378 28.307 36.88 28.8432 37.2063 29.4083C37.5215 29.9543 37.8058 30.4996 38.0581 31.037M32.4194 34.2295C32.0911 33.7554 31.7715 33.2516 31.466 32.7225C31.1443 32.1652 30.8548 31.6086 30.5986 31.0604M38.0602 31.0548C37.8024 31.6074 37.5108 32.1686 37.1864 32.7304C36.8807 33.2599 36.561 33.7639 36.2325 34.2383M30.6057 31.0208C30.8551 30.4912 31.1356 29.954 31.4461 29.4163C31.7774 28.8425 32.1251 28.2986 32.4826 27.79" stroke="#F0FF4C" stroke-opacity="0.8" stroke-width="6" stroke-linecap="round"/>
</g>
<path d="M49.8626 21.7731C57.3648 23.7335 62.2991 27.0582 62.2991 30.8296C62.2991 36.8571 49.6961 41.7433 34.1496 41.7433C32.0093 41.7433 29.9249 41.6507 27.9215 41.4753M18.4274 39.8838C10.9303 37.9231 6 34.5996 6 30.8296C6 24.8022 18.603 19.9159 34.1496 19.9159C36.2057 19.9159 38.2103 20.0014 40.141 20.1637M18.404 21.739C16.4029 14.341 16.8331 8.48022 20.0748 6.60865C25.2947 3.59492 35.8278 12.0663 43.6011 25.5301C44.6391 27.3279 45.5753 29.1238 46.4061 30.8934M49.8114 39.9294C51.9076 47.4712 51.5105 53.4679 48.2244 55.3651C43.0044 58.3789 32.4713 49.9075 24.6981 36.4437C23.6386 34.6087 22.6851 32.7757 21.8416 30.9706M34.1511 12.8226C39.5814 7.3429 44.9034 4.75533 48.1588 6.63486C53.3788 9.64859 51.3089 23.0062 43.5356 36.47C42.5289 38.2135 41.476 39.8734 40.3943 41.4354M34.107 49.1125C28.6456 54.6546 23.2827 57.2813 20.0093 55.3913C14.7893 52.3776 16.8592 39.02 24.6325 25.5563C25.7234 23.6668 26.8686 21.8757 28.0459 20.2008" stroke="#EAFF00" stroke-width="4" stroke-linecap="round"/>
<path d="M38.2674 37.8409C36.9711 37.9521 35.6238 38.0108 34.2412 38.0108C32.8314 38.0108 31.4584 37.9498 30.1387 37.8343M30.2796 23.7975C31.556 23.6898 32.8815 23.633 34.2412 23.633C35.5956 23.633 36.916 23.6893 38.1878 23.7962M38.2537 23.8534C39.0168 24.9422 39.7593 26.1052 40.467 27.3311C41.1507 28.5153 41.7675 29.6982 42.3147 30.8639M30.0834 37.7889C29.3713 36.7605 28.6782 35.6678 28.0154 34.52C27.3176 33.3112 26.6895 32.1038 26.1339 30.9148M42.3191 30.9026C41.7601 32.1012 41.1275 33.3185 40.4239 34.5372C39.7608 35.6857 39.0672 36.7791 38.3547 37.808M26.1493 30.8287C26.6903 29.68 27.2988 28.5148 27.9723 27.3483C28.6908 26.1037 29.4452 24.9239 30.2207 23.8207" stroke="#EAFF00" stroke-width="4" stroke-linecap="round"/>
<path d="M36.1922 34.2534C35.5947 34.3047 34.9735 34.3318 34.3362 34.3318C33.6862 34.3318 33.0532 34.3037 32.4449 34.2504M32.5098 27.7793C33.0983 27.7296 33.7093 27.7035 34.3362 27.7035C34.9605 27.7035 35.5693 27.7294 36.1556 27.7787M36.1859 27.8051C36.5378 28.307 36.88 28.8432 37.2063 29.4083C37.5215 29.9542 37.8058 30.4996 38.0581 31.037M32.4194 34.2295C32.0911 33.7554 31.7715 33.2516 31.466 32.7225C31.1443 32.1652 30.8548 31.6086 30.5986 31.0604M38.0602 31.0548C37.8024 31.6074 37.5108 32.1686 37.1864 32.7304C36.8807 33.2599 36.561 33.7639 36.2325 34.2383M30.6057 31.0208C30.8551 30.4912 31.1356 29.954 31.4461 29.4163C31.7774 28.8425 32.1251 28.2986 32.4826 27.79" stroke="#EAFF00" stroke-width="4" stroke-linecap="round"/>
<path d="M49.8626 21.7731C57.3648 23.7335 62.2991 27.0582 62.2991 30.8296C62.2991 36.8571 49.6961 41.7433 34.1496 41.7433C32.0093 41.7433 29.9249 41.6507 27.9215 41.4753M18.4274 39.8838C10.9303 37.9231 6 34.5996 6 30.8296C6 24.8022 18.603 19.9159 34.1496 19.9159C36.2057 19.9159 38.2103 20.0014 40.141 20.1637M18.404 21.739C16.4029 14.341 16.8331 8.48022 20.0748 6.60865C25.2947 3.59492 35.8278 12.0663 43.6011 25.53C44.6391 27.3278 45.5753 29.1238 46.4061 30.8934M49.8114 39.9294C51.9076 47.4712 51.5105 53.4679 48.2244 55.3651C43.0044 58.3789 32.4713 49.9075 24.6981 36.4437C23.6386 34.6087 22.6851 32.7757 21.8416 30.9706M34.1511 12.8226C39.5814 7.3429 44.9034 4.75533 48.1588 6.63486C53.3788 9.64859 51.3089 23.0062 43.5356 36.47C42.5289 38.2135 41.476 39.8734 40.3943 41.4354M34.107 49.1125C28.6456 54.6546 23.2827 57.2813 20.0093 55.3913C14.7893 52.3776 16.8592 39.02 24.6325 25.5563C25.7234 23.6668 26.8686 21.8757 28.0459 20.2008" stroke="black" stroke-width="2" stroke-linecap="round"/>
<path d="M38.2674 37.8409C36.9711 37.9521 35.6238 38.0108 34.2412 38.0108C32.8314 38.0108 31.4584 37.9498 30.1387 37.8343M30.2796 23.7975C31.556 23.6898 32.8815 23.633 34.2412 23.633C35.5956 23.633 36.916 23.6893 38.1878 23.7962M38.2537 23.8534C39.0168 24.9422 39.7593 26.1052 40.467 27.3311C41.1507 28.5153 41.7675 29.6982 42.3147 30.8639M30.0834 37.7889C29.3713 36.7605 28.6782 35.6678 28.0154 34.52C27.3176 33.3112 26.6895 32.1038 26.1339 30.9148M42.3191 30.9026C41.7601 32.1012 41.1275 33.3185 40.4239 34.5372C39.7608 35.6857 39.0672 36.7791 38.3547 37.808M26.1493 30.8287C26.6903 29.68 27.2988 28.5148 27.9723 27.3483C28.6908 26.1037 29.4452 24.9239 30.2207 23.8207" stroke="black" stroke-width="2" stroke-linecap="round"/>
<path d="M36.1922 34.2534C35.5947 34.3047 34.9735 34.3318 34.3362 34.3318C33.6862 34.3318 33.0532 34.3037 32.4449 34.2504M32.5098 27.7793C33.0983 27.7296 33.7093 27.7035 34.3362 27.7035C34.9605 27.7035 35.5693 27.7294 36.1556 27.7787M36.1859 27.8051C36.5378 28.307 36.88 28.8432 37.2063 29.4083C37.5215 29.9542 37.8058 30.4996 38.0581 31.037M32.4194 34.2295C32.0911 33.7554 31.7715 33.2516 31.466 32.7225C31.1443 32.1652 30.8548 31.6086 30.5986 31.0604M38.0602 31.0548C37.8024 31.6074 37.5108 32.1686 37.1864 32.7304C36.8807 33.2599 36.561 33.7639 36.2325 34.2383M30.6057 31.0208C30.8551 30.4912 31.1356 29.954 31.4461 29.4163C31.7774 28.8425 32.1251 28.2986 32.4826 27.79" stroke="black" stroke-width="2" stroke-linecap="round"/>
<defs>
<filter id="filter0_f_401_3" x="0.04" y="0.0404043" width="68.2191" height="61.9209" filterUnits="userSpaceOnUse" color-interpolation-filters="sRGB">
<feFlood flood-opacity="0" result="BackgroundImageFix"/>
<feBlend mode="normal" in="SourceGraphic" in2="BackgroundImageFix" result="shape"/>
<feGaussianBlur stdDeviation="1.48" result="effect1_foregroundBlur_401_3"/>
</filter>
<filter id="filter1_f_401_3" x="20.1732" y="17.673" width="28.1067" height="26.2978" filterUnits="userSpaceOnUse" color-interpolation-filters="sRGB">
<feFlood flood-opacity="0" result="BackgroundImageFix"/>
<feBlend mode="normal" in="SourceGraphic" in2="BackgroundImageFix" result="shape"/>
<feGaussianBlur stdDeviation="1.48" result="effect1_foregroundBlur_401_3"/>
</filter>
<filter id="filter2_f_401_3" x="24.6379" y="21.7435" width="19.383" height="18.5483" filterUnits="userSpaceOnUse" color-interpolation-filters="sRGB">
<feFlood flood-opacity="0" result="BackgroundImageFix"/>
<feBlend mode="normal" in="SourceGraphic" in2="BackgroundImageFix" result="shape"/>
<feGaussianBlur stdDeviation="1.48" result="effect1_foregroundBlur_401_3"/>
</filter>
</defs>
</svg>
