<svg width="62" height="52" viewBox="0 0 62 52" fill="none" xmlns="http://www.w3.org/2000/svg">
<g filter="url(#filter0_f_401_14)">
<path d="M6 26V6L23.5 16L41 6V26L26 36L41 46L56 36V23.5" stroke="#F0FF4C" stroke-opacity="0.796078" stroke-width="6" stroke-linecap="round" stroke-linejoin="round"/>
</g>
<g filter="url(#filter1_f_401_14)">
<path d="M56 13.5V6" stroke="#F0FF4C" stroke-opacity="0.796078" stroke-width="6" stroke-linecap="round" stroke-linejoin="round"/>
</g>
<path d="M6 26V6.00002L23.5 16L41 6.00002V26L26 36L41 46L56 36V23.5" stroke="#EAFF00" stroke-width="4" stroke-linecap="round" stroke-linejoin="round"/>
<path d="M56 13.5V6" stroke="#EAFF00" stroke-width="4" stroke-linecap="round" stroke-linejoin="round"/>
<path d="M6 26V6L23.5 16L41 6V26L26 36L41 46L56 36V23.5" stroke="black" stroke-width="2" stroke-linecap="round" stroke-linejoin="round"/>
<path d="M56 13.5V6" stroke="black" stroke-width="2" stroke-linecap="round" stroke-linejoin="round"/>
<defs>
<filter id="filter0_f_401_14" x="0.7" y="0.7" width="60.6" height="50.6" filterUnits="userSpaceOnUse" color-interpolation-filters="sRGB">
<feFlood flood-opacity="0" result="BackgroundImageFix"/>
<feBlend mode="normal" in="SourceGraphic" in2="BackgroundImageFix" result="shape"/>
<feGaussianBlur stdDeviation="1.15" result="effect1_foregroundBlur_401_14"/>
</filter>
<filter id="filter1_f_401_14" x="50.7" y="0.7" width="10.6" height="18.1" filterUnits="userSpaceOnUse" color-interpolation-filters="sRGB">
<feFlood flood-opacity="0" result="BackgroundImageFix"/>
<feBlend mode="normal" in="SourceGraphic" in2="BackgroundImageFix" result="shape"/>
<feGaussianBlur stdDeviation="1.15" result="effect1_foregroundBlur_401_14"/>
</filter>
</defs>
</svg>
