<svg width="74" height="62" viewBox="0 0 74 62" fill="none" xmlns="http://www.w3.org/2000/svg">
<g filter="url(#filter0_f_401_14)">
<path d="M6 31V6L27.875 18.5L49.75 6V31L31 43.5L49.75 56L68.5 43.5V27.875" stroke="#F0FF4C" stroke-opacity="0.796078" stroke-width="6" stroke-linecap="round" stroke-linejoin="round"/>
</g>
<g filter="url(#filter1_f_401_14)">
<path d="M68.5 15.375V6" stroke="#F0FF4C" stroke-opacity="0.796078" stroke-width="6" stroke-linecap="round" stroke-linejoin="round"/>
</g>
<path d="M6 31V6.00002L27.875 18.5L49.75 6.00002V31L31 43.5L49.75 56L68.5 43.5V27.875" stroke="#EAFF00" stroke-width="4" stroke-linecap="round" stroke-linejoin="round"/>
<path d="M68.5 15.375V6" stroke="#EAFF00" stroke-width="4" stroke-linecap="round" stroke-linejoin="round"/>
<path d="M6 31V6L27.875 18.5L49.75 6V31L31 43.5L49.75 56L68.5 43.5V27.875" stroke="black" stroke-width="2" stroke-linecap="round" stroke-linejoin="round"/>
<path d="M68.5 15.375V6" stroke="black" stroke-width="2" stroke-linecap="round" stroke-linejoin="round"/>
<defs>
<filter id="filter0_f_401_14" x="0.7" y="0.7" width="73.1" height="60.6" filterUnits="userSpaceOnUse" color-interpolation-filters="sRGB">
<feFlood flood-opacity="0" result="BackgroundImageFix"/>
<feBlend mode="normal" in="SourceGraphic" in2="BackgroundImageFix" result="shape"/>
<feGaussianBlur stdDeviation="1.15" result="effect1_foregroundBlur_401_14"/>
</filter>
<filter id="filter1_f_401_14" x="63.2" y="0.7" width="10.6" height="19.975" filterUnits="userSpaceOnUse" color-interpolation-filters="sRGB">
<feFlood flood-opacity="0" result="BackgroundImageFix"/>
<feBlend mode="normal" in="SourceGraphic" in2="BackgroundImageFix" result="shape"/>
<feGaussianBlur stdDeviation="1.15" result="effect1_foregroundBlur_401_14"/>
</filter>
</defs>
</svg>
