<svg width="104" height="62" viewBox="0 0 104 62" fill="none" xmlns="http://www.w3.org/2000/svg">
<g filter="url(#filter0_f_501_3)">
<path d="M34.1695 39.4141C29.6017 39.4141 25.8784 35.6612 25.8784 31.0606C25.8784 26.4598 29.6017 22.707 34.1695 22.707C38.7373 22.707 42.4606 26.4598 42.4606 31.0606C42.4606 35.658 38.7341 39.4141 34.1695 39.4141V39.4141ZM14.2616 55.9996C9.70032 55.9899 5.98688 52.2205 6.00003 47.6198C6.00265 45.4132 6.87993 43.2976 8.43961 41.7367C9.99929 40.1758 12.1142 39.2969 14.3207 39.2925C18.8853 39.3023 22.5987 43.0717 22.5823 47.6756C22.5779 49.8814 21.7 51.9956 20.1406 53.5556C18.5812 55.1157 16.4673 55.9944 14.2616 55.9996V55.9996ZM89.7198 55.9996C87.5134 56.004 85.3952 55.134 83.8289 53.5801C82.2627 52.0261 81.3759 49.9149 81.3629 47.7086C81.3393 43.1012 85.0369 39.3187 89.5949 39.2958C91.8001 39.2922 93.9169 40.1622 95.4824 41.7154C97.0479 43.2685 97.9345 45.3784 97.9484 47.5836C97.9746 52.1876 94.2744 55.9733 89.7198 55.9996Z" stroke="#F0FF4C" stroke-opacity="0.8" stroke-width="6"/>
</g>
<g filter="url(#filter1_f_501_3)">
<path d="M74.1792 23.1933C71.9248 22.4903 69.516 22.1972 67.1532 21.9413C63.499 21.5463 62.0432 20.1207 61.4254 16.4598C61.077 14.4158 60.5907 12.3193 59.7067 10.4625C58.0209 6.92981 54.0708 5.34584 50.1044 6.24955C46.7524 7.01588 43.969 10.3507 43.8145 13.775C43.637 17.679 45.8717 21.0145 49.71 22.1647C51.5338 22.7137 53.4727 22.9857 55.3754 23.1273C58.8687 23.3807 60.0353 24.4221 60.9784 26.0127C61.5765 27.0187 62.1517 28.0074 62.1517 30.9979C62.1517 33.9915 61.57 34.9807 60.9784 35.983C60.0352 37.5736 58.8687 38.612 55.3754 38.8716C53.4694 39.0095 51.5306 39.2852 49.71 39.8342C45.8717 40.988 43.6371 44.3167 43.8145 48.2272C43.969 51.6482 46.7557 54.9837 50.1044 55.7494C54.0708 56.6561 58.0209 55.0687 59.7067 51.5364C60.594 49.683 61.077 47.5831 61.4254 45.5391C62.0465 41.8782 63.5023 40.4553 67.1532 40.0578C69.5193 39.8019 71.9248 39.5063 74.1792 38.8023C77.6001 37.7342 79.6573 34.5434 79.6573 30.9976C79.6573 27.4551 77.6001 24.2674 74.1792 23.1928V23.1933Z" stroke="#F0FF4C" stroke-opacity="0.8" stroke-width="6"/>
</g>
<path d="M34.1695 39.4141C29.6017 39.4141 25.8784 35.6612 25.8784 31.0606C25.8784 26.4598 29.6017 22.707 34.1695 22.707C38.7373 22.707 42.4606 26.4598 42.4606 31.0606C42.4606 35.658 38.7341 39.4141 34.1695 39.4141V39.4141ZM14.2616 55.9996C9.70032 55.9899 5.98688 52.2205 6.00003 47.6198C6.00265 45.4132 6.87993 43.2976 8.43961 41.7367C9.99929 40.1758 12.1142 39.2969 14.3207 39.2925C18.8853 39.3023 22.5987 43.0717 22.5823 47.6756C22.5779 49.8814 21.7 51.9956 20.1406 53.5556C18.5812 55.1157 16.4673 55.9944 14.2616 55.9996V55.9996ZM89.7198 55.9996C87.5134 56.004 85.3952 55.134 83.8289 53.5801C82.2627 52.0261 81.3759 49.9149 81.3629 47.7086C81.3393 43.1012 85.0369 39.3187 89.5949 39.2958C91.8001 39.2922 93.9169 40.1622 95.4824 41.7154C97.0479 43.2685 97.9345 45.3784 97.9484 47.5836C97.9746 52.1876 94.2744 55.9733 89.7198 55.9996Z" stroke="#EAFF00" stroke-width="4"/>
<path d="M74.1792 23.1933C71.9248 22.4903 69.516 22.1972 67.1532 21.9413C63.499 21.5463 62.0432 20.1207 61.4254 16.4598C61.077 14.4158 60.5907 12.3192 59.7067 10.4625C58.0209 6.92981 54.0708 5.34584 50.1044 6.24955C46.7524 7.01588 43.969 10.3507 43.8145 13.775C43.637 17.679 45.8717 21.0145 49.71 22.1647C51.5338 22.7137 53.4727 22.9857 55.3754 23.1273C58.8687 23.3807 60.0353 24.4221 60.9784 26.0127C61.5765 27.0187 62.1517 28.0074 62.1517 30.9978C62.1517 33.9915 61.57 34.9807 60.9784 35.983C60.0352 37.5736 58.8687 38.612 55.3754 38.8716C53.4694 39.0095 51.5306 39.2852 49.71 39.8342C45.8717 40.988 43.6371 44.3167 43.8145 48.2272C43.969 51.6482 46.7557 54.9837 50.1044 55.7494C54.0708 56.6561 58.0209 55.0687 59.7067 51.5364C60.594 49.683 61.077 47.5831 61.4254 45.5391C62.0465 41.8782 63.5023 40.4553 67.1532 40.0578C69.5193 39.8019 71.9248 39.5063 74.1792 38.8023C77.6001 37.7341 79.6573 34.5434 79.6573 30.9976C79.6573 27.4551 77.6001 24.2674 74.1792 23.1928V23.1933Z" stroke="#EAFF00" stroke-width="4"/>
<path d="M34.1695 39.4141C29.6017 39.4141 25.8784 35.6612 25.8784 31.0606C25.8784 26.4598 29.6017 22.707 34.1695 22.707C38.7373 22.707 42.4606 26.4598 42.4606 31.0606C42.4606 35.658 38.7341 39.4141 34.1695 39.4141V39.4141ZM14.2616 55.9996C9.70032 55.9899 5.98688 52.2205 6.00003 47.6197C6.00265 45.4132 6.87993 43.2976 8.43961 41.7367C9.99929 40.1758 12.1142 39.2969 14.3207 39.2925C18.8853 39.3023 22.5987 43.0717 22.5823 47.6756C22.5779 49.8814 21.7 51.9956 20.1406 53.5556C18.5812 55.1157 16.4673 55.9944 14.2616 55.9996V55.9996ZM89.7198 55.9996C87.5134 56.004 85.3952 55.134 83.8289 53.5801C82.2627 52.0261 81.3759 49.9149 81.3629 47.7085C81.3393 43.1012 85.0369 39.3187 89.5949 39.2958C91.8001 39.2922 93.9169 40.1622 95.4824 41.7154C97.0479 43.2685 97.9345 45.3784 97.9484 47.5836C97.9746 52.1876 94.2744 55.9733 89.7198 55.9996Z" stroke="black" stroke-width="2"/>
<path d="M74.1792 23.1933C71.9248 22.4903 69.516 22.1972 67.1532 21.9413C63.499 21.5463 62.0432 20.1207 61.4254 16.4598C61.077 14.4158 60.5907 12.3192 59.7067 10.4625C58.0209 6.92981 54.0708 5.34584 50.1044 6.24955C46.7524 7.01588 43.969 10.3507 43.8145 13.775C43.637 17.679 45.8717 21.0145 49.71 22.1647C51.5338 22.7137 53.4727 22.9857 55.3754 23.1273C58.8687 23.3807 60.0353 24.4221 60.9784 26.0127C61.5765 27.0187 62.1517 28.0074 62.1517 30.9979C62.1517 33.9915 61.57 34.9807 60.9784 35.983C60.0352 37.5736 58.8687 38.612 55.3754 38.8716C53.4694 39.0095 51.5306 39.2852 49.71 39.8342C45.8717 40.988 43.6371 44.3167 43.8145 48.2272C43.969 51.6482 46.7557 54.9837 50.1044 55.7494C54.0708 56.6561 58.0209 55.0687 59.7067 51.5364C60.594 49.683 61.077 47.5831 61.4254 45.5391C62.0465 41.8782 63.5023 40.4553 67.1532 40.0578C69.5193 39.8019 71.9248 39.5063 74.1792 38.8023C77.6001 37.7341 79.6573 34.5434 79.6573 30.9976C79.6573 27.4551 77.6001 24.2674 74.1792 23.1928V23.1933Z" stroke="#FF0000" stroke-width="2"/>
<defs>
<filter id="filter0_f_501_3" x="0.7" y="17.407" width="102.549" height="43.8926" filterUnits="userSpaceOnUse" color-interpolation-filters="sRGB">
<feFlood flood-opacity="0" result="BackgroundImageFix"/>
<feBlend mode="normal" in="SourceGraphic" in2="BackgroundImageFix" result="shape"/>
<feGaussianBlur stdDeviation="1.15" result="effect1_foregroundBlur_501_3"/>
</filter>
<filter id="filter1_f_501_3" x="38.5047" y="0.703674" width="46.4526" height="60.5927" filterUnits="userSpaceOnUse" color-interpolation-filters="sRGB">
<feFlood flood-opacity="0" result="BackgroundImageFix"/>
<feBlend mode="normal" in="SourceGraphic" in2="BackgroundImageFix" result="shape"/>
<feGaussianBlur stdDeviation="1.15" result="effect1_foregroundBlur_501_3"/>
</filter>
</defs>
</svg>
