<svg width="166" height="58" viewBox="0 0 166 58" fill="none" xmlns="http://www.w3.org/2000/svg">
<g filter="url(#filter0_f_502_38)">
<path d="M30.0602 3V40.782C30.0602 46.609 25.3609 51.8722 18.406 51.6842C8.44361 51.6842 6.75188 45.4812 6 40.9699" stroke="#F0FF4C" stroke-opacity="0.8" stroke-width="6"/>
</g>
<g filter="url(#filter1_f_502_38)">
<path d="M60.1353 19.7293C69.1579 19.7293 74.0451 26.3083 74.0451 36.6466C74.0451 46.2331 67.2782 52.0601 60.1353 52.0601C53.1805 51.9724 46.0376 46.0451 46.0376 36.6466C46.0376 25.9323 51.7492 19.7029 60.1353 19.7293Z" stroke="#F0FF4C" stroke-opacity="0.8" stroke-width="6"/>
</g>
<g filter="url(#filter2_f_502_38)">
<path d="M47.3534 5.63158L72.3534 5.81954L47.3534 5.63158" stroke="#F0FF4C" stroke-opacity="0.8" stroke-width="6"/>
</g>
<g filter="url(#filter3_f_502_38)">
<path d="M93.0301 6.7594V44.5414C93.0301 47.5489 94.1579 49.2406 96.4135 50.7444C97.8083 51.4637 99.3434 51.8921 101.636 51.8337C103.097 51.7964 103.556 51.6842 105.624 51.1203" stroke="#F0FF4C" stroke-opacity="0.8" stroke-width="6"/>
</g>
<g filter="url(#filter4_f_502_38)">
<path d="M82.1278 20.1053C90.0225 20.1053 97.9173 20.1053 105.812 20.1053H82.1278Z" stroke="#F0FF4C" stroke-opacity="0.8" stroke-width="6"/>
</g>
<g filter="url(#filter5_f_502_38)">
<path d="M158.068 53L158.301 17.1374L158.068 53Z" stroke="#F0FF4C" stroke-opacity="0.8" stroke-width="6"/>
</g>
<g filter="url(#filter6_f_502_38)">
<path d="M157.965 9.49599C158.963 9.49599 159.773 8.68674 159.773 7.68847C159.773 6.69021 158.963 5.88095 157.965 5.88095C156.967 5.88095 156.157 6.69021 156.157 7.68847C156.157 8.68674 156.967 9.49599 157.965 9.49599Z" stroke="#F0FF4C" stroke-opacity="0.8" stroke-width="6" stroke-linecap="round" stroke-linejoin="round"/>
</g>
<g filter="url(#filter7_f_502_38)">
<path d="M116.15 27.6241C117.466 24.4286 118.03 23.1128 120.286 21.609C122.878 19.8627 125.173 19.5414 127.992 19.5414C131.564 19.5414 134.759 20.2932 137.767 23.1128C139.083 24.4286 139.647 25.5564 139.647 28.188V52.6241" stroke="#F0FF4C" stroke-opacity="0.8" stroke-width="6"/>
</g>
<g filter="url(#filter8_f_502_38)">
<path d="M139.647 40.406L134.008 47.3609C131.328 50.3467 128.511 51.7491 125.549 52.2481C122.729 52.4361 119.91 51.8722 117.842 50.3684C115.399 48.6767 114.835 46.985 114.835 44.1654C114.835 41.3459 116.526 39.2782 118.594 37.9624C120.286 36.8346 121.789 36.2707 125.558 35.5038C126.651 35.2815 127.617 35.1429 130.248 34.9549C134.383 34.7669 138.331 32.8872 139.647 28.188" stroke="#F0FF4C" stroke-opacity="0.8" stroke-width="6"/>
</g>
<path d="M30.0602 3V40.782C30.0602 46.609 25.3609 51.8722 18.406 51.6842C8.44361 51.6842 6.75188 45.4812 6 40.9699" stroke="#EAFF00" stroke-width="4"/>
<path d="M60.1353 19.7293C69.1579 19.7293 74.0451 26.3083 74.0451 36.6466C74.0451 46.2331 67.2782 52.0601 60.1353 52.0601C53.1805 51.9724 46.0376 46.0451 46.0376 36.6466C46.0376 25.9323 51.7492 19.7029 60.1353 19.7293Z" stroke="#EAFF00" stroke-width="4"/>
<path d="M47.3534 5.63158L72.3534 5.81954L47.3534 5.63158" stroke="#EAFF00" stroke-width="4"/>
<path d="M93.0301 6.7594V44.5414C93.0301 47.5489 94.1579 49.2406 96.4135 50.7444C97.8083 51.4637 99.3434 51.8921 101.636 51.8337C103.097 51.7964 103.556 51.6842 105.624 51.1203" stroke="#EAFF00" stroke-width="4"/>
<path d="M82.1278 20.1053C90.0225 20.1053 97.9173 20.1053 105.812 20.1053H82.1278Z" stroke="#EAFF00" stroke-width="4"/>
<path d="M158.068 53L158.301 17.1374L158.068 53Z" stroke="#EAFF00" stroke-width="4"/>
<path d="M157.965 9.49599C158.963 9.49599 159.773 8.68674 159.773 7.68847C159.773 6.69021 158.963 5.88095 157.965 5.88095C156.967 5.88095 156.157 6.69021 156.157 7.68847C156.157 8.68674 156.967 9.49599 157.965 9.49599Z" stroke="#EAFF00" stroke-width="4" stroke-linecap="round" stroke-linejoin="round"/>
<path d="M116.15 27.6241C117.466 24.4286 118.03 23.1128 120.286 21.609C122.878 19.8627 125.173 19.5414 127.992 19.5414C131.564 19.5414 134.759 20.2932 137.767 23.1128C139.083 24.4286 139.647 25.5564 139.647 28.188V52.6241" stroke="#EAFF00" stroke-width="4"/>
<path d="M139.647 40.406L134.008 47.3609C131.328 50.3467 128.511 51.7491 125.549 52.2481C122.729 52.4361 119.91 51.8722 117.842 50.3684C115.399 48.6767 114.835 46.985 114.835 44.1654C114.835 41.3459 116.526 39.2782 118.594 37.9624C120.286 36.8346 121.789 36.2707 125.558 35.5038C126.651 35.2815 127.617 35.1429 130.248 34.9549C134.383 34.7669 138.331 32.8872 139.647 28.188" stroke="#EAFF00" stroke-width="4"/>
<path d="M30.0602 3V40.782C30.0602 46.609 25.3609 51.8722 18.406 51.6842C8.44361 51.6842 6.75188 45.4812 6 40.9699" stroke="black" stroke-width="2"/>
<path d="M60.1353 19.7293C69.1579 19.7293 74.0451 26.3083 74.0451 36.6466C74.0451 46.2331 67.2782 52.0601 60.1353 52.0601C53.1805 51.9724 46.0376 46.0451 46.0376 36.6466C46.0376 25.9323 51.7492 19.7029 60.1353 19.7293Z" stroke="black" stroke-width="2"/>
<path d="M47.3534 5.63158L72.3534 5.81954L47.3534 5.63158" stroke="black" stroke-width="2"/>
<path d="M93.0301 6.7594V44.5414C93.0301 47.5489 94.1579 49.2406 96.4135 50.7444C97.8083 51.4637 99.3434 51.8921 101.636 51.8337C103.097 51.7964 103.556 51.6842 105.624 51.1203" stroke="black" stroke-width="2"/>
<path d="M82.1278 20.1053C90.0225 20.1053 97.9173 20.1053 105.812 20.1053H82.1278Z" stroke="black" stroke-width="2"/>
<path d="M158.068 53L158.301 17.1374L158.068 53Z" stroke="black" stroke-width="2"/>
<path d="M157.965 9.49599C158.963 9.49599 159.773 8.68674 159.773 7.68847C159.773 6.69021 158.963 5.88095 157.965 5.88095C156.967 5.88095 156.157 6.69021 156.157 7.68847C156.157 8.68674 156.967 9.49599 157.965 9.49599Z" stroke="black" stroke-width="2" stroke-linecap="round" stroke-linejoin="round"/>
<path d="M116.15 27.6241C117.466 24.4286 118.03 23.1128 120.286 21.609C122.878 19.8627 125.173 19.5414 127.992 19.5414C131.564 19.5414 134.759 20.2932 137.767 23.1128C139.083 24.4286 139.647 25.5564 139.647 28.188V52.6241" stroke="black" stroke-width="2"/>
<path d="M139.647 40.406L134.008 47.3609C131.328 50.3467 128.511 51.7491 125.549 52.2481C122.729 52.4361 119.91 51.8722 117.842 50.3684C115.399 48.6767 114.835 46.985 114.835 44.1654C114.835 41.3459 116.526 39.2782 118.594 37.9624C120.286 36.8346 121.789 36.2707 125.558 35.5038C126.651 35.2815 127.617 35.1429 130.248 34.9549C134.383 34.7669 138.331 32.8872 139.647 28.188" stroke="black" stroke-width="2"/>
<defs>
<filter id="filter0_f_502_38" x="0.740833" y="0.7" width="34.6193" height="56.2891" filterUnits="userSpaceOnUse" color-interpolation-filters="sRGB">
<feFlood flood-opacity="0" result="BackgroundImageFix"/>
<feBlend mode="normal" in="SourceGraphic" in2="BackgroundImageFix" result="shape"/>
<feGaussianBlur stdDeviation="1.15" result="effect1_foregroundBlur_502_38"/>
</filter>
<filter id="filter1_f_502_38" x="40.7376" y="14.4292" width="38.6075" height="42.9309" filterUnits="userSpaceOnUse" color-interpolation-filters="sRGB">
<feFlood flood-opacity="0" result="BackgroundImageFix"/>
<feBlend mode="normal" in="SourceGraphic" in2="BackgroundImageFix" result="shape"/>
<feGaussianBlur stdDeviation="1.15" result="effect1_foregroundBlur_502_38"/>
</filter>
<filter id="filter2_f_502_38" x="45.0308" y="0.331661" width="29.6452" height="10.7878" filterUnits="userSpaceOnUse" color-interpolation-filters="sRGB">
<feFlood flood-opacity="0" result="BackgroundImageFix"/>
<feBlend mode="normal" in="SourceGraphic" in2="BackgroundImageFix" result="shape"/>
<feGaussianBlur stdDeviation="1.15" result="effect1_foregroundBlur_502_38"/>
</filter>
<filter id="filter3_f_502_38" x="87.7301" y="4.4594" width="20.9834" height="52.6796" filterUnits="userSpaceOnUse" color-interpolation-filters="sRGB">
<feFlood flood-opacity="0" result="BackgroundImageFix"/>
<feBlend mode="normal" in="SourceGraphic" in2="BackgroundImageFix" result="shape"/>
<feGaussianBlur stdDeviation="1.15" result="effect1_foregroundBlur_502_38"/>
</filter>
<filter id="filter4_f_502_38" x="79.8278" y="14.8053" width="28.2842" height="10.6" filterUnits="userSpaceOnUse" color-interpolation-filters="sRGB">
<feFlood flood-opacity="0" result="BackgroundImageFix"/>
<feBlend mode="normal" in="SourceGraphic" in2="BackgroundImageFix" result="shape"/>
<feGaussianBlur stdDeviation="1.15" result="effect1_foregroundBlur_502_38"/>
</filter>
<filter id="filter5_f_502_38" x="152.768" y="14.8179" width="10.8334" height="40.5017" filterUnits="userSpaceOnUse" color-interpolation-filters="sRGB">
<feFlood flood-opacity="0" result="BackgroundImageFix"/>
<feBlend mode="normal" in="SourceGraphic" in2="BackgroundImageFix" result="shape"/>
<feGaussianBlur stdDeviation="1.15" result="effect1_foregroundBlur_502_38"/>
</filter>
<filter id="filter6_f_502_38" x="150.857" y="0.580951" width="14.2151" height="14.215" filterUnits="userSpaceOnUse" color-interpolation-filters="sRGB">
<feFlood flood-opacity="0" result="BackgroundImageFix"/>
<feBlend mode="normal" in="SourceGraphic" in2="BackgroundImageFix" result="shape"/>
<feGaussianBlur stdDeviation="1.15" result="effect1_foregroundBlur_502_38"/>
</filter>
<filter id="filter7_f_502_38" x="111.076" y="14.2414" width="33.8703" height="40.6827" filterUnits="userSpaceOnUse" color-interpolation-filters="sRGB">
<feFlood flood-opacity="0" result="BackgroundImageFix"/>
<feBlend mode="normal" in="SourceGraphic" in2="BackgroundImageFix" result="shape"/>
<feGaussianBlur stdDeviation="1.15" result="effect1_foregroundBlur_502_38"/>
</filter>
<filter id="filter8_f_502_38" x="109.535" y="25.0791" width="35.3009" height="32.5037" filterUnits="userSpaceOnUse" color-interpolation-filters="sRGB">
<feFlood flood-opacity="0" result="BackgroundImageFix"/>
<feBlend mode="normal" in="SourceGraphic" in2="BackgroundImageFix" result="shape"/>
<feGaussianBlur stdDeviation="1.15" result="effect1_foregroundBlur_502_38"/>
</filter>
</defs>
</svg>
